<svg width="40" height="15" viewBox="0 0 40 15" fill="none" xmlns="http://www.w3.org/2000/svg">
<path fill-rule="evenodd" clip-rule="evenodd" d="M7.358 2.495C8.27044 2.48047 9.15218 2.81491 9.81308 3.42617L11.6389 1.65358C10.4803 0.597883 8.94635 0.018326 7.358 0.0361666C6.17266 0.0361541 5.01059 0.35597 4.00142 0.959958C2.99226 1.56393 2.17557 2.42834 1.64251 3.45679L1.64256 3.45776C1.19451 4.32259 0.961182 5.2773 0.961182 6.24546C0.961182 7.21363 1.19451 8.16834 1.64256 9.03317L1.64251 9.03539C2.17557 10.0638 2.99226 10.9282 4.00142 11.5322C5.01059 12.1362 6.17266 12.456 7.358 12.456V12.4539C9.08491 12.4539 10.5379 11.9039 11.5965 10.9547L11.6063 10.9547C12.8138 9.87358 13.5094 8.27623 13.5094 6.38644H13.5017C13.5029 5.9619 13.4665 5.53805 13.393 5.11954H7.35805V7.51504H10.8195C10.749 7.89716 10.5993 8.26139 10.3797 8.58569C10.16 8.90998 9.87483 9.18757 9.54142 9.40166V9.4091L9.53161 9.40173C8.95775 9.77758 8.21875 9.99611 7.358 9.99611C5.68975 9.99611 4.27365 8.90448 3.77155 7.43381L3.76721 7.43371C3.49916 6.66295 3.49916 5.82798 3.76721 5.05721V5.05625C4.27365 3.58454 5.68975 2.49395 7.35362 2.49395L7.358 2.495ZM19.2824 6.002V2.22981V2.22876H21.6734C22.058 2.2258 22.435 2.33344 22.7568 2.53811C23.0786 2.74281 23.3309 3.03538 23.482 3.37904C23.633 3.7227 23.676 4.10208 23.6056 4.46943C23.5352 4.83679 23.3545 5.1757 23.0862 5.44351C22.9034 5.62654 22.6834 5.77069 22.4401 5.86682C22.197 5.96297 21.9359 6.00899 21.6734 6.002H19.2824ZM19.2824 11.7062V7.3333H21.6462C22.6207 7.33401 23.4395 7.02714 24.1024 6.41269C24.4264 6.12094 24.6849 5.76733 24.8617 5.37402C25.0384 4.9807 25.1297 4.55616 25.1297 4.127C25.1297 3.69783 25.0384 3.27329 24.8617 2.87997C24.6849 2.48665 24.4264 2.13304 24.1024 1.8413C23.7767 1.53579 23.392 1.29589 22.9705 1.13536C22.5489 0.974817 22.0989 0.896839 21.6462 0.90591H17.8522V11.7062H19.2824ZM26.7022 9.95122C26.6197 9.79346 26.5771 9.61879 26.5781 9.44178C26.5781 9.0406 26.7727 8.70416 27.1617 8.43249C27.5508 8.16081 28.0351 8.02496 28.6148 8.02496C29.4132 8.02426 30.0352 8.1953 30.4808 8.53805C30.4809 8.82621 30.4178 9.11108 30.2958 9.37374C30.1739 9.63641 29.9957 9.87085 29.7733 10.0615C29.3461 10.4759 28.7674 10.7089 28.1637 10.7097C27.7618 10.7171 27.3695 10.5896 27.053 10.3487C26.9051 10.2453 26.7849 10.109 26.7022 9.95122ZM30.9253 4.89572C30.3167 4.34744 29.4835 4.0733 28.4256 4.0733C27.0679 4.0733 26.0427 4.55542 25.35 5.51968L26.6107 6.28932C27.0781 5.63546 27.7102 5.30852 28.5072 5.30852C29.0173 5.30161 29.5113 5.48182 29.8907 5.81317C30.0769 5.96279 30.2266 6.15077 30.3288 6.36349C30.4311 6.57621 30.4833 6.80835 30.4819 7.04312V7.35985C29.932 7.05861 29.2321 6.90798 28.3822 6.90798C27.3838 6.90728 26.5868 7.13356 25.9913 7.58683C25.3957 8.0401 25.0979 8.64821 25.0979 9.41117C25.0914 9.7554 25.1641 10.0967 25.3108 10.4101C25.4575 10.7236 25.6744 11.0012 25.9456 11.2228C26.5097 11.7064 27.2139 11.9471 28.0529 11.9471C29.0375 11.9471 29.8251 11.5248 30.4156 10.6802H30.4786V11.7064H31.8415V7.15081C31.8393 6.19571 31.5339 5.44401 30.9253 4.89572ZM39.699 4.31184L34.9247 14.9643H33.4478L35.2203 11.2376L32.0795 4.31184H33.6347L35.905 9.62331H35.9354L38.1438 4.31184H39.699Z" fill="white"/>
</svg>
